<?xml version="1.0" encoding="UTF-8" standalone="no"?>
<!DOCTYPE svg PUBLIC "-//W3C//DTD SVG 1.1//EN"
 "http://www.w3.org/Graphics/SVG/1.1/DTD/svg11.dtd">
<!-- Generated by graphviz version 2.40.1 (20161225.0304)
 -->
<!-- Title: UmlClassDiagram Pages: 1 -->
<svg width="2901pt" height="922pt"
 viewBox="0.00 0.00 2900.93 921.60" xmlns="http://www.w3.org/2000/svg" xmlns:xlink="http://www.w3.org/1999/xlink">
<g id="graph0" class="graph" transform="scale(1 1) rotate(0) translate(4 917.6)">
<title>UmlClassDiagram</title>
<polygon fill="#ffffff" stroke="transparent" points="-4,4 -4,-917.6 2896.9341,-917.6 2896.9341,4 -4,4"/>
<!-- 0 -->
<g id="node1" class="node">
<title>0</title>
<polygon fill="#f2f2f2" stroke="#000000" points="632.051,-.5 632.051,-175.7 838.1318,-175.7 838.1318,-.5 632.051,-.5"/>
<text text-anchor="middle" x="735.0914" y="-159.1" font-family="Times,serif" font-size="14.00" fill="#000000">Migrations</text>
<polyline fill="none" stroke="#000000" points="632.051,-150.9 838.1318,-150.9 "/>
<text text-anchor="start" x="640.051" y="-134.3" font-family="Times,serif" font-size="14.00" fill="#000000">Public:</text>
<text text-anchor="start" x="640.051" y="-117.5" font-family="Times,serif" font-size="14.00" fill="#000000"> &#160;&#160;owner: address</text>
<text text-anchor="start" x="640.051" y="-100.7" font-family="Times,serif" font-size="14.00" fill="#000000"> &#160;&#160;last_completed_migration: uint</text>
<polyline fill="none" stroke="#000000" points="632.051,-92.5 838.1318,-92.5 "/>
<text text-anchor="start" x="640.051" y="-75.9" font-family="Times,serif" font-size="14.00" fill="#000000">Public:</text>
<text text-anchor="start" x="640.051" y="-59.1" font-family="Times,serif" font-size="14.00" fill="#000000"> &#160;&#160;&#160;&lt;&lt;modifier&gt;&gt; restricted()</text>
<text text-anchor="start" x="640.051" y="-42.3" font-family="Times,serif" font-size="14.00" fill="#000000"> &#160;&#160;&#160;constructor()</text>
<text text-anchor="start" x="640.051" y="-25.5" font-family="Times,serif" font-size="14.00" fill="#000000"> &#160;&#160;&#160;setCompleted(completed: uint)</text>
<text text-anchor="start" x="640.051" y="-8.7" font-family="Times,serif" font-size="14.00" fill="#000000"> &#160;&#160;&#160;upgrade(new_address: address)</text>
</g>
<!-- 0&#45;&gt;0 -->
<g id="edge1" class="edge">
<title>0&#45;&gt;0</title>
<path fill="none" stroke="#000000" stroke-dasharray="5,2" d="M838.3975,-47.3974C849.2058,-55.343 856.1318,-68.9105 856.1318,-88.1 856.1318,-102.4921 852.236,-113.7219 845.7283,-121.7893"/>
<polygon fill="#000000" stroke="#000000" points="843.2038,-119.3607 838.3975,-128.8026 848.0428,-124.4187 843.2038,-119.3607"/>
</g>
<!-- 1 -->
<g id="node2" class="node">
<title>1</title>
<polygon fill="#f2f2f2" stroke="#000000" points="1014.9563,-534.1 1014.9563,-692.5 1269.2265,-692.5 1269.2265,-534.1 1014.9563,-534.1"/>
<text text-anchor="middle" x="1142.0914" y="-675.9" font-family="Times,serif" font-size="14.00" fill="#000000">Ownable</text>
<polyline fill="none" stroke="#000000" points="1014.9563,-667.7 1269.2265,-667.7 "/>
<text text-anchor="start" x="1022.9563" y="-651.1" font-family="Times,serif" font-size="14.00" fill="#000000">Public:</text>
<text text-anchor="start" x="1022.9563" y="-634.3" font-family="Times,serif" font-size="14.00" fill="#000000"> &#160;&#160;owner: address</text>
<polyline fill="none" stroke="#000000" points="1014.9563,-626.1 1269.2265,-626.1 "/>
<text text-anchor="start" x="1022.9563" y="-609.5" font-family="Times,serif" font-size="14.00" fill="#000000">External:</text>
<text text-anchor="start" x="1022.9563" y="-592.7" font-family="Times,serif" font-size="14.00" fill="#000000"> &#160;&#160;&#160;transferOwnership(newOwner: address)</text>
<text text-anchor="start" x="1022.9563" y="-575.9" font-family="Times,serif" font-size="14.00" fill="#000000">Public:</text>
<text text-anchor="start" x="1022.9563" y="-559.1" font-family="Times,serif" font-size="14.00" fill="#000000"> &#160;&#160;&#160;&lt;&lt;modifier&gt;&gt; onlyOwner()</text>
<text text-anchor="start" x="1022.9563" y="-542.3" font-family="Times,serif" font-size="14.00" fill="#000000"> &#160;&#160;&#160;constructor()</text>
</g>
<!-- 2 -->
<g id="node3" class="node">
<title>2</title>
<polygon fill="#f2f2f2" stroke="#000000" points="1472.0767,-25.7 1472.0767,-150.5 1670.1061,-150.5 1670.1061,-25.7 1472.0767,-25.7"/>
<text text-anchor="middle" x="1571.0914" y="-133.9" font-family="Times,serif" font-size="14.00" fill="#000000">ReentrancyGuard</text>
<polyline fill="none" stroke="#000000" points="1472.0767,-125.7 1670.1061,-125.7 "/>
<text text-anchor="start" x="1480.0767" y="-109.1" font-family="Times,serif" font-size="14.00" fill="#000000">Private:</text>
<text text-anchor="start" x="1480.0767" y="-92.3" font-family="Times,serif" font-size="14.00" fill="#000000"> &#160;&#160;_guardCounter: uint256</text>
<polyline fill="none" stroke="#000000" points="1472.0767,-84.1 1670.1061,-84.1 "/>
<text text-anchor="start" x="1480.0767" y="-67.5" font-family="Times,serif" font-size="14.00" fill="#000000">Public:</text>
<text text-anchor="start" x="1480.0767" y="-50.7" font-family="Times,serif" font-size="14.00" fill="#000000"> &#160;&#160;&#160;&lt;&lt;modifier&gt;&gt; nonReentrant()</text>
<text text-anchor="start" x="1480.0767" y="-33.9" font-family="Times,serif" font-size="14.00" fill="#000000"> &#160;&#160;&#160;constructor()</text>
</g>
<!-- 3 -->
<g id="node4" class="node">
<title>3</title>
<polygon fill="#f2f2f2" stroke="#000000" points="1287.6205,-525.7 1287.6205,-700.9 1522.5623,-700.9 1522.5623,-525.7 1287.6205,-525.7"/>
<text text-anchor="middle" x="1405.0914" y="-684.3" font-family="Times,serif" font-size="14.00" fill="#000000">&lt;&lt;Library&gt;&gt;</text>
<text text-anchor="middle" x="1405.0914" y="-667.5" font-family="Times,serif" font-size="14.00" fill="#000000">SafeMath</text>
<polyline fill="none" stroke="#000000" points="1287.6205,-659.3 1522.5623,-659.3 "/>
<text text-anchor="middle" x="1405.0914" y="-642.7" font-family="Times,serif" font-size="14.00" fill="#000000"> </text>
<polyline fill="none" stroke="#000000" points="1287.6205,-634.5 1522.5623,-634.5 "/>
<text text-anchor="start" x="1295.6205" y="-617.9" font-family="Times,serif" font-size="14.00" fill="#000000">Internal:</text>
<text text-anchor="start" x="1295.6205" y="-601.1" font-family="Times,serif" font-size="14.00" fill="#000000"> &#160;&#160;&#160;add(a: uint256, b: uint256): uint256</text>
<text text-anchor="start" x="1295.6205" y="-584.3" font-family="Times,serif" font-size="14.00" fill="#000000"> &#160;&#160;&#160;sub(a: uint256, b: uint256): uint256</text>
<text text-anchor="start" x="1295.6205" y="-567.5" font-family="Times,serif" font-size="14.00" fill="#000000"> &#160;&#160;&#160;mul(a: uint256, b: uint256): uint256</text>
<text text-anchor="start" x="1295.6205" y="-550.7" font-family="Times,serif" font-size="14.00" fill="#000000"> &#160;&#160;&#160;div(a: uint256, b: uint256): uint256</text>
<text text-anchor="start" x="1295.6205" y="-533.9" font-family="Times,serif" font-size="14.00" fill="#000000"> &#160;&#160;&#160;mod(a: uint256, b: uint256): uint256</text>
</g>
<!-- 4 -->
<g id="node5" class="node">
<title>4</title>
<polygon fill="#f2f2f2" stroke="#000000" points="2051.9328,-254.7 2051.9328,-446.7 2570.25,-446.7 2570.25,-254.7 2051.9328,-254.7"/>
<text text-anchor="middle" x="2311.0914" y="-430.1" font-family="Times,serif" font-size="14.00" fill="#000000">OwnedUpgradeabilityProxy</text>
<polyline fill="none" stroke="#000000" points="2051.9328,-421.9 2570.25,-421.9 "/>
<text text-anchor="middle" x="2311.0914" y="-405.3" font-family="Times,serif" font-size="14.00" fill="#000000"> </text>
<polyline fill="none" stroke="#000000" points="2051.9328,-397.1 2570.25,-397.1 "/>
<text text-anchor="start" x="2059.9328" y="-380.5" font-family="Times,serif" font-size="14.00" fill="#000000">Public:</text>
<text text-anchor="start" x="2059.9328" y="-363.7" font-family="Times,serif" font-size="14.00" fill="#000000"> &#160;&#160;&#160;&lt;&lt;payable&gt;&gt; upgradeToAndCall(version: string, implementation: address, data: bytes)</text>
<text text-anchor="start" x="2059.9328" y="-346.9" font-family="Times,serif" font-size="14.00" fill="#000000"> &#160;&#160;&#160;&lt;&lt;event&gt;&gt; ProxyOwnershipTransferred(previousOwner: address, newOwner: address)</text>
<text text-anchor="start" x="2059.9328" y="-330.1" font-family="Times,serif" font-size="14.00" fill="#000000"> &#160;&#160;&#160;&lt;&lt;modifier&gt;&gt; onlyProxyOwner()</text>
<text text-anchor="start" x="2059.9328" y="-313.3" font-family="Times,serif" font-size="14.00" fill="#000000"> &#160;&#160;&#160;constructor()</text>
<text text-anchor="start" x="2059.9328" y="-296.5" font-family="Times,serif" font-size="14.00" fill="#000000"> &#160;&#160;&#160;proxyOwner(): address</text>
<text text-anchor="start" x="2059.9328" y="-279.7" font-family="Times,serif" font-size="14.00" fill="#000000"> &#160;&#160;&#160;transferProxyOwnership(newOwner: address)</text>
<text text-anchor="start" x="2059.9328" y="-262.9" font-family="Times,serif" font-size="14.00" fill="#000000"> &#160;&#160;&#160;upgradeTo(version: string, implementation: address)</text>
</g>
<!-- 6 -->
<g id="node7" class="node">
<title>6</title>
<polygon fill="#f2f2f2" stroke="#000000" points="2521.2487,-542.5 2521.2487,-684.1 2892.9341,-684.1 2892.9341,-542.5 2521.2487,-542.5"/>
<text text-anchor="middle" x="2707.0914" y="-667.5" font-family="Times,serif" font-size="14.00" fill="#000000">UpgradeabilityOwnerStorage</text>
<polyline fill="none" stroke="#000000" points="2521.2487,-659.3 2892.9341,-659.3 "/>
<text text-anchor="start" x="2529.2487" y="-642.7" font-family="Times,serif" font-size="14.00" fill="#000000">Private:</text>
<text text-anchor="start" x="2529.2487" y="-625.9" font-family="Times,serif" font-size="14.00" fill="#000000"> &#160;&#160;_upgradeabilityOwner: address</text>
<polyline fill="none" stroke="#000000" points="2521.2487,-617.7 2892.9341,-617.7 "/>
<text text-anchor="start" x="2529.2487" y="-601.1" font-family="Times,serif" font-size="14.00" fill="#000000">Internal:</text>
<text text-anchor="start" x="2529.2487" y="-584.3" font-family="Times,serif" font-size="14.00" fill="#000000"> &#160;&#160;&#160;setUpgradeabilityOwner(newUpgradeabilityOwner: address)</text>
<text text-anchor="start" x="2529.2487" y="-567.5" font-family="Times,serif" font-size="14.00" fill="#000000">Public:</text>
<text text-anchor="start" x="2529.2487" y="-550.7" font-family="Times,serif" font-size="14.00" fill="#000000"> &#160;&#160;&#160;upgradeabilityOwner(): address</text>
</g>
<!-- 4&#45;&gt;6 -->
<g id="edge2" class="edge">
<title>4&#45;&gt;6</title>
<path fill="none" stroke="#000000" d="M2456.018,-446.8053C2494.9619,-472.6303 2536.8635,-500.4165 2575.0656,-525.7495"/>
<polygon fill="none" stroke="#000000" points="2569.3961,-534.5888 2600.2013,-542.4178 2581.002,-517.0872 2569.3961,-534.5888"/>
</g>
<!-- 7 -->
<g id="node8" class="node">
<title>7</title>
<polygon fill="#f2f2f2" stroke="#000000" points="2118.766,-542.5 2118.766,-684.1 2503.4168,-684.1 2503.4168,-542.5 2118.766,-542.5"/>
<text text-anchor="middle" x="2311.0914" y="-667.5" font-family="Times,serif" font-size="14.00" fill="#000000">UpgradeabilityProxy</text>
<polyline fill="none" stroke="#000000" points="2118.766,-659.3 2503.4168,-659.3 "/>
<text text-anchor="middle" x="2311.0914" y="-642.7" font-family="Times,serif" font-size="14.00" fill="#000000"> </text>
<polyline fill="none" stroke="#000000" points="2118.766,-634.5 2503.4168,-634.5 "/>
<text text-anchor="start" x="2126.766" y="-617.9" font-family="Times,serif" font-size="14.00" fill="#000000">Internal:</text>
<text text-anchor="start" x="2126.766" y="-601.1" font-family="Times,serif" font-size="14.00" fill="#000000"> &#160;&#160;&#160;_upgradeTo(version: string, implementation: address)</text>
<text text-anchor="start" x="2126.766" y="-584.3" font-family="Times,serif" font-size="14.00" fill="#000000">Public:</text>
<text text-anchor="start" x="2126.766" y="-567.5" font-family="Times,serif" font-size="14.00" fill="#000000"> &#160;&#160;&#160;&lt;&lt;event&gt;&gt; Upgraded(version: string, implementation: address)</text>
<text text-anchor="start" x="2126.766" y="-550.7" font-family="Times,serif" font-size="14.00" fill="#000000"> &#160;&#160;&#160;getImplementation(): address</text>
</g>
<!-- 4&#45;&gt;7 -->
<g id="edge3" class="edge">
<title>4&#45;&gt;7</title>
<path fill="none" stroke="#000000" d="M2311.0914,-446.9914C2311.0914,-468.1363 2311.0914,-490.5879 2311.0914,-511.9258"/>
<polygon fill="none" stroke="#000000" points="2300.5915,-512.1095 2311.0914,-542.1095 2321.5915,-512.1096 2300.5915,-512.1095"/>
</g>
<!-- 5 -->
<g id="node6" class="node">
<title>5</title>
<polygon fill="#f2f2f2" stroke="#000000" points="2183.5027,-763.1 2183.5027,-887.9 2438.6801,-887.9 2438.6801,-763.1 2183.5027,-763.1"/>
<text text-anchor="middle" x="2311.0914" y="-871.3" font-family="Times,serif" font-size="14.00" fill="#000000">&lt;&lt;Abstract&gt;&gt;</text>
<text text-anchor="middle" x="2311.0914" y="-854.5" font-family="Times,serif" font-size="14.00" fill="#000000">Proxy</text>
<polyline fill="none" stroke="#000000" points="2183.5027,-846.3 2438.6801,-846.3 "/>
<text text-anchor="middle" x="2311.0914" y="-829.7" font-family="Times,serif" font-size="14.00" fill="#000000"> </text>
<polyline fill="none" stroke="#000000" points="2183.5027,-821.5 2438.6801,-821.5 "/>
<text text-anchor="start" x="2191.5027" y="-804.9" font-family="Times,serif" font-size="14.00" fill="#000000">Public:</text>
<text text-anchor="start" x="2191.5027" y="-788.1" font-family="Times,serif" font-size="14.00" fill="#000000"> &#160;&#160;&#160;&lt;&lt;abstract&gt;&gt; implementation(): address</text>
<text text-anchor="start" x="2191.5027" y="-771.3" font-family="Times,serif" font-size="14.00" fill="#000000"> &#160;&#160;&#160;&lt;&lt;fallback&gt;&gt; ()</text>
</g>
<!-- 7&#45;&gt;5 -->
<g id="edge4" class="edge">
<title>7&#45;&gt;5</title>
<path fill="none" stroke="#000000" d="M2311.0914,-684.2545C2311.0914,-699.7462 2311.0914,-716.3648 2311.0914,-732.5674"/>
<polygon fill="none" stroke="#000000" points="2300.5915,-732.8067 2311.0914,-762.8068 2321.5915,-732.8068 2300.5915,-732.8067"/>
</g>
<!-- 8 -->
<g id="node9" class="node">
<title>8</title>
<polygon fill="#f2f2f2" stroke="#000000" points="1943.807,-754.7 1943.807,-896.3 2120.3758,-896.3 2120.3758,-754.7 1943.807,-754.7"/>
<text text-anchor="middle" x="2032.0914" y="-879.7" font-family="Times,serif" font-size="14.00" fill="#000000">UpgradeabilityStorage</text>
<polyline fill="none" stroke="#000000" points="1943.807,-871.5 2120.3758,-871.5 "/>
<text text-anchor="start" x="1951.807" y="-854.9" font-family="Times,serif" font-size="14.00" fill="#000000">Internal:</text>
<text text-anchor="start" x="1951.807" y="-838.1" font-family="Times,serif" font-size="14.00" fill="#000000"> &#160;&#160;_version: string</text>
<text text-anchor="start" x="1951.807" y="-821.3" font-family="Times,serif" font-size="14.00" fill="#000000"> &#160;&#160;_implementation: address</text>
<polyline fill="none" stroke="#000000" points="1943.807,-813.1 2120.3758,-813.1 "/>
<text text-anchor="start" x="1951.807" y="-796.5" font-family="Times,serif" font-size="14.00" fill="#000000">Public:</text>
<text text-anchor="start" x="1951.807" y="-779.7" font-family="Times,serif" font-size="14.00" fill="#000000"> &#160;&#160;&#160;version(): string</text>
<text text-anchor="start" x="1951.807" y="-762.9" font-family="Times,serif" font-size="14.00" fill="#000000"> &#160;&#160;&#160;implementation(): address</text>
</g>
<!-- 7&#45;&gt;8 -->
<g id="edge5" class="edge">
<title>7&#45;&gt;8</title>
<path fill="none" stroke="#000000" d="M2217.8006,-684.2545C2194.3988,-702.0533 2169.0412,-721.3397 2144.8044,-739.7735"/>
<polygon fill="none" stroke="#000000" points="2138.0927,-731.6863 2120.5709,-758.2049 2150.8056,-748.4011 2138.0927,-731.6863"/>
</g>
<!-- 9 -->
<g id="node10" class="node">
<title>9</title>
<polygon fill="#f2f2f2" stroke="#000000" points="1540.4465,-550.9 1540.4465,-675.7 1857.7363,-675.7 1857.7363,-550.9 1540.4465,-550.9"/>
<text text-anchor="middle" x="1699.0914" y="-659.1" font-family="Times,serif" font-size="14.00" fill="#000000">&lt;&lt;Interface&gt;&gt;</text>
<text text-anchor="middle" x="1699.0914" y="-642.3" font-family="Times,serif" font-size="14.00" fill="#000000">ERC20</text>
<polyline fill="none" stroke="#000000" points="1540.4465,-634.1 1857.7363,-634.1 "/>
<text text-anchor="middle" x="1699.0914" y="-617.5" font-family="Times,serif" font-size="14.00" fill="#000000"> </text>
<polyline fill="none" stroke="#000000" points="1540.4465,-609.3 1857.7363,-609.3 "/>
<text text-anchor="start" x="1548.4465" y="-592.7" font-family="Times,serif" font-size="14.00" fill="#000000">External:</text>
<text text-anchor="start" x="1548.4465" y="-575.9" font-family="Times,serif" font-size="14.00" fill="#000000"> &#160;&#160;&#160;&#160;balanceOf(_owner: address): (balance: uint)</text>
<text text-anchor="start" x="1548.4465" y="-559.1" font-family="Times,serif" font-size="14.00" fill="#000000"> &#160;&#160;&#160;&#160;transfer(_to: address, _value: uint): (success: bool)</text>
</g>
<!-- 10 -->
<g id="node11" class="node">
<title>10</title>
<polygon fill="#f2f2f2" stroke="#000000" points="45.226,-559.3 45.226,-667.3 278.9568,-667.3 278.9568,-559.3 45.226,-559.3"/>
<text text-anchor="middle" x="162.0914" y="-650.7" font-family="Times,serif" font-size="14.00" fill="#000000">&lt;&lt;Interface&gt;&gt;</text>
<text text-anchor="middle" x="162.0914" y="-633.9" font-family="Times,serif" font-size="14.00" fill="#000000">SynthDepotInterface</text>
<polyline fill="none" stroke="#000000" points="45.226,-625.7 278.9568,-625.7 "/>
<text text-anchor="middle" x="162.0914" y="-609.1" font-family="Times,serif" font-size="14.00" fill="#000000"> </text>
<polyline fill="none" stroke="#000000" points="45.226,-600.9 278.9568,-600.9 "/>
<text text-anchor="start" x="53.226" y="-584.3" font-family="Times,serif" font-size="14.00" fill="#000000">External:</text>
<text text-anchor="start" x="53.226" y="-567.5" font-family="Times,serif" font-size="14.00" fill="#000000"> &#160;&#160;&#160;&#160;exchangeEtherForSynths(): uint256</text>
</g>
<!-- 11 -->
<g id="node12" class="node">
<title>11</title>
<polygon fill="#f2f2f2" stroke="#000000" points="296.9258,-559.3 296.9258,-667.3 997.257,-667.3 997.257,-559.3 296.9258,-559.3"/>
<text text-anchor="middle" x="647.0914" y="-650.7" font-family="Times,serif" font-size="14.00" fill="#000000">&lt;&lt;Abstract&gt;&gt;</text>
<text text-anchor="middle" x="647.0914" y="-633.9" font-family="Times,serif" font-size="14.00" fill="#000000">SynthProxyInterface</text>
<polyline fill="none" stroke="#000000" points="296.9258,-625.7 997.257,-625.7 "/>
<text text-anchor="middle" x="647.0914" y="-609.1" font-family="Times,serif" font-size="14.00" fill="#000000"> </text>
<polyline fill="none" stroke="#000000" points="296.9258,-600.9 997.257,-600.9 "/>
<text text-anchor="start" x="304.9258" y="-584.3" font-family="Times,serif" font-size="14.00" fill="#000000">External:</text>
<text text-anchor="start" x="304.9258" y="-567.5" font-family="Times,serif" font-size="14.00" fill="#000000"> &#160;&#160;&#160;&lt;&lt;abstract&gt;&gt; exchange(sourceCurrencyKey: bytes32, sourceAmount: uint256, destinationCurrencyKey: bytes32): bool</text>
</g>
<!-- 12 -->
<g id="node13" class="node">
<title>12</title>
<polygon fill="#f2f2f2" stroke="#000000" points="1011.8293,-212.7 1011.8293,-488.7 1534.3535,-488.7 1534.3535,-212.7 1011.8293,-212.7"/>
<text text-anchor="middle" x="1273.0914" y="-472.1" font-family="Times,serif" font-size="14.00" fill="#000000">Invest2_sETH</text>
<polyline fill="none" stroke="#000000" points="1011.8293,-463.9 1534.3535,-463.9 "/>
<text text-anchor="start" x="1019.8293" y="-447.3" font-family="Times,serif" font-size="14.00" fill="#000000">Public:</text>
<text text-anchor="start" x="1019.8293" y="-430.5" font-family="Times,serif" font-size="14.00" fill="#000000"> &#160;&#160;SynthDepotInterfaceContract: SynthDepotInterface</text>
<text text-anchor="start" x="1019.8293" y="-413.7" font-family="Times,serif" font-size="14.00" fill="#000000"> &#160;&#160;SynthProxyInterfaceContract: SynthProxyInterface</text>
<text text-anchor="start" x="1019.8293" y="-396.9" font-family="Times,serif" font-size="14.00" fill="#000000"> &#160;&#160;sETHContract: ERC20</text>
<polyline fill="none" stroke="#000000" points="1011.8293,-388.7 1534.3535,-388.7 "/>
<text text-anchor="start" x="1019.8293" y="-372.1" font-family="Times,serif" font-size="14.00" fill="#000000">Public:</text>
<text text-anchor="start" x="1019.8293" y="-355.3" font-family="Times,serif" font-size="14.00" fill="#000000"> &#160;&#160;&#160;&lt;&lt;fallback&gt;&gt; ()</text>
<text text-anchor="start" x="1019.8293" y="-338.5" font-family="Times,serif" font-size="14.00" fill="#000000"> &#160;&#160;&#160;&lt;&lt;payable&gt;&gt; LetsInvestin_sETH(_investor: address): uint</text>
<text text-anchor="start" x="1019.8293" y="-321.7" font-family="Times,serif" font-size="14.00" fill="#000000"> &#160;&#160;&#160;&lt;&lt;payable&gt;&gt; depositETH(): uint</text>
<text text-anchor="start" x="1019.8293" y="-304.9" font-family="Times,serif" font-size="14.00" fill="#000000"> &#160;&#160;&#160;&lt;&lt;event&gt;&gt; sUSDReceived(uint)</text>
<text text-anchor="start" x="1019.8293" y="-288.1" font-family="Times,serif" font-size="14.00" fill="#000000"> &#160;&#160;&#160;&lt;&lt;event&gt;&gt; sETHReceived(uint)</text>
<text text-anchor="start" x="1019.8293" y="-271.3" font-family="Times,serif" font-size="14.00" fill="#000000"> &#160;&#160;&#160;set_SynthDepotInterfaceContract(_SynthDepotInterfaceContract: SynthDepotInterface)</text>
<text text-anchor="start" x="1019.8293" y="-254.5" font-family="Times,serif" font-size="14.00" fill="#000000"> &#160;&#160;&#160;set_SynthProxyInterfaceContract(_SynthProxyInterfaceContract: SynthProxyInterface)</text>
<text text-anchor="start" x="1019.8293" y="-237.7" font-family="Times,serif" font-size="14.00" fill="#000000"> &#160;&#160;&#160;set_sETHContract(_sETHContract: ERC20)</text>
<text text-anchor="start" x="1019.8293" y="-220.9" font-family="Times,serif" font-size="14.00" fill="#000000"> &#160;&#160;&#160;withdraw()</text>
</g>
<!-- 12&#45;&gt;1 -->
<g id="edge6" class="edge">
<title>12&#45;&gt;1</title>
<path fill="none" stroke="#000000" d="M1204.1388,-488.9212C1201.129,-494.9545 1198.129,-500.9682 1195.1642,-506.9113"/>
<polygon fill="none" stroke="#000000" points="1185.6397,-502.4824 1181.6435,-534.0146 1204.4312,-511.8567 1185.6397,-502.4824"/>
</g>
<!-- 12&#45;&gt;3 -->
<g id="edge8" class="edge">
<title>12&#45;&gt;3</title>
<path fill="none" stroke="#000000" stroke-dasharray="5,2" d="M1342.5705,-488.9212C1347.2753,-498.281 1351.9565,-507.5938 1356.5181,-516.6686"/>
<polygon fill="#000000" stroke="#000000" points="1353.4179,-518.2942 1361.0363,-525.657 1359.6722,-515.1503 1353.4179,-518.2942"/>
</g>
<!-- 12&#45;&gt;9 -->
<g id="edge11" class="edge">
<title>12&#45;&gt;9</title>
<path fill="none" stroke="#000000" d="M1497.0076,-488.7291C1529.0134,-508.4585 1560.6897,-527.9848 1589.1357,-545.5198"/>
<polygon fill="#000000" stroke="#000000" points="1587.5076,-548.6277 1597.8569,-550.8958 1591.1809,-542.6689 1587.5076,-548.6277"/>
</g>
<!-- 12&#45;&gt;10 -->
<g id="edge9" class="edge">
<title>12&#45;&gt;10</title>
<path fill="none" stroke="#000000" d="M1011.7092,-366.0854C808.0557,-385.301 521.6399,-428.4429 288.0914,-525.2 270.3473,-532.5513 252.6233,-542.7304 236.3102,-553.567"/>
<polygon fill="#000000" stroke="#000000" points="234.2119,-550.7613 227.9154,-559.2822 238.1513,-556.5477 234.2119,-550.7613"/>
</g>
<!-- 12&#45;&gt;11 -->
<g id="edge10" class="edge">
<title>12&#45;&gt;11</title>
<path fill="none" stroke="#000000" d="M1011.6912,-460.3545C934.0424,-492.9273 852.0368,-527.3277 785.505,-555.2371"/>
<polygon fill="#000000" stroke="#000000" points="784.0894,-552.0353 776.2218,-559.1312 786.7973,-558.4904 784.0894,-552.0353"/>
</g>
<!-- 15 -->
<g id="node16" class="node">
<title>15</title>
<polygon fill="#f2f2f2" stroke="#000000" points="1875.5184,-576.1 1875.5184,-650.5 2100.6644,-650.5 2100.6644,-576.1 1875.5184,-576.1"/>
<text text-anchor="middle" x="1988.0914" y="-633.9" font-family="Times,serif" font-size="14.00" fill="#000000">Upgradeable_Invest2_sETH_Storage</text>
<polyline fill="none" stroke="#000000" points="1875.5184,-625.7 2100.6644,-625.7 "/>
<text text-anchor="middle" x="1988.0914" y="-609.1" font-family="Times,serif" font-size="14.00" fill="#000000"> </text>
<polyline fill="none" stroke="#000000" points="1875.5184,-600.9 2100.6644,-600.9 "/>
<text text-anchor="middle" x="1988.0914" y="-584.3" font-family="Times,serif" font-size="14.00" fill="#000000"> </text>
</g>
<!-- 12&#45;&gt;15 -->
<g id="edge7" class="edge">
<title>12&#45;&gt;15</title>
<path fill="none" stroke="#000000" d="M1534.7128,-406.8176C1640.9582,-434.8531 1762.9496,-473.9225 1867.0914,-525.2 1885.2515,-534.1417 1903.5634,-545.7991 1920.2533,-557.6915"/>
<polygon fill="none" stroke="#000000" points="1914.2053,-566.2808 1944.4972,-575.9063 1926.8194,-549.4914 1914.2053,-566.2808"/>
</g>
<!-- 13 -->
<g id="node14" class="node">
<title>13</title>
<polygon fill="#f2f2f2" stroke="#000000" points="780.9784,-737.9 780.9784,-913.1 1065.2044,-913.1 1065.2044,-737.9 780.9784,-737.9"/>
<text text-anchor="middle" x="923.0914" y="-896.5" font-family="Times,serif" font-size="14.00" fill="#000000">Invest2_sETH_Storage</text>
<polyline fill="none" stroke="#000000" points="780.9784,-888.3 1065.2044,-888.3 "/>
<text text-anchor="start" x="788.9784" y="-871.7" font-family="Times,serif" font-size="14.00" fill="#000000">Public:</text>
<text text-anchor="start" x="788.9784" y="-854.9" font-family="Times,serif" font-size="14.00" fill="#000000"> &#160;&#160;balance: uint</text>
<text text-anchor="start" x="788.9784" y="-838.1" font-family="Times,serif" font-size="14.00" fill="#000000"> &#160;&#160;USDbytes32: bytes32</text>
<text text-anchor="start" x="788.9784" y="-821.3" font-family="Times,serif" font-size="14.00" fill="#000000"> &#160;&#160;sETHbytes32: bytes32</text>
<text text-anchor="start" x="788.9784" y="-804.5" font-family="Times,serif" font-size="14.00" fill="#000000"> &#160;&#160;synthDepotInterfaceContractAddress: address</text>
<text text-anchor="start" x="788.9784" y="-787.7" font-family="Times,serif" font-size="14.00" fill="#000000"> &#160;&#160;synthProxyInterfaceContractAddress: address</text>
<text text-anchor="start" x="788.9784" y="-770.9" font-family="Times,serif" font-size="14.00" fill="#000000"> &#160;&#160;sETHContractAddress: address</text>
<polyline fill="none" stroke="#000000" points="780.9784,-762.7 1065.2044,-762.7 "/>
<text text-anchor="middle" x="923.0914" y="-746.1" font-family="Times,serif" font-size="14.00" fill="#000000"> </text>
</g>
<!-- 14 -->
<g id="node15" class="node">
<title>14</title>
<polygon fill="#f2f2f2" stroke="#000000" points="874.2609,-8.9 874.2609,-167.3 1453.9219,-167.3 1453.9219,-8.9 874.2609,-8.9"/>
<text text-anchor="middle" x="1164.0914" y="-150.7" font-family="Times,serif" font-size="14.00" fill="#000000">Invest2_sETH_StorageProxy</text>
<polyline fill="none" stroke="#000000" points="874.2609,-142.5 1453.9219,-142.5 "/>
<text text-anchor="middle" x="1164.0914" y="-125.9" font-family="Times,serif" font-size="14.00" fill="#000000"> </text>
<polyline fill="none" stroke="#000000" points="874.2609,-117.7 1453.9219,-117.7 "/>
<text text-anchor="start" x="882.2609" y="-101.1" font-family="Times,serif" font-size="14.00" fill="#000000">External:</text>
<text text-anchor="start" x="882.2609" y="-84.3" font-family="Times,serif" font-size="14.00" fill="#000000"> &#160;&#160;&#160;setUSDbytes32(_USDbytes32: bytes32): bytes32</text>
<text text-anchor="start" x="882.2609" y="-67.5" font-family="Times,serif" font-size="14.00" fill="#000000"> &#160;&#160;&#160;setETHbytes32(_ETHbytes32: bytes32): bytes32</text>
<text text-anchor="start" x="882.2609" y="-50.7" font-family="Times,serif" font-size="14.00" fill="#000000"> &#160;&#160;&#160;setSynthDepotInterfaceContractAddress(_synthDepotInterfaceContractAddress: address): address</text>
<text text-anchor="start" x="882.2609" y="-33.9" font-family="Times,serif" font-size="14.00" fill="#000000"> &#160;&#160;&#160;setSynthProxyInterfaceContractAddress(_synthProxyInterfaceContractAddress: address): address</text>
<text text-anchor="start" x="882.2609" y="-17.1" font-family="Times,serif" font-size="14.00" fill="#000000"> &#160;&#160;&#160;setSETHContractAddress(_sETHContractAddress: address): address</text>
</g>
<!-- 14&#45;&gt;4 -->
<g id="edge12" class="edge">
<title>14&#45;&gt;4</title>
<path fill="none" stroke="#000000" d="M1428.7034,-167.3434C1440.302,-170.4137 1451.8032,-173.3808 1463.0914,-176.2 1647.9288,-222.363 1857.6144,-265.5911 2022.2309,-297.474"/>
<polygon fill="none" stroke="#000000" points="2020.4584,-307.8255 2051.9034,-303.1928 2024.4327,-287.205 2020.4584,-307.8255"/>
</g>
<!-- 14&#45;&gt;13 -->
<g id="edge13" class="edge">
<title>14&#45;&gt;13</title>
<path fill="none" stroke="#000000" d="M917.0961,-167.3635C601.1564,-271.2047 88.2752,-449.0141 36.0914,-525.2 -8.1623,-589.8084 -15.3036,-642.3138 36.0914,-701.4 82.233,-754.4466 505.9003,-794.481 750.6291,-813.4123"/>
<polygon fill="none" stroke="#000000" points="749.9302,-823.8894 780.6409,-815.6976 751.5248,-802.95 749.9302,-823.8894"/>
</g>
<!-- 15&#45;&gt;8 -->
<g id="edge14" class="edge">
<title>15&#45;&gt;8</title>
<path fill="none" stroke="#000000" d="M1995.8565,-650.7486C2000.1764,-671.5824 2005.7796,-698.6052 2011.2831,-725.1469"/>
<polygon fill="none" stroke="#000000" points="2001.0082,-727.3102 2017.3806,-754.5535 2021.5708,-723.0465 2001.0082,-727.3102"/>
</g>
<!-- 15&#45;&gt;13 -->
<g id="edge15" class="edge">
<title>15&#45;&gt;13</title>
<path fill="none" stroke="#000000" d="M1947.8113,-650.5541C1925.6288,-668.9119 1896.6523,-689.5922 1867.0914,-701.4 1730.6711,-755.8919 1328.6315,-794.5387 1095.5698,-813.0752"/>
<polygon fill="none" stroke="#000000" points="1094.6748,-802.6131 1065.5861,-815.4232 1096.3143,-823.549 1094.6748,-802.6131"/>
</g>
</g>
</svg>
