<?xml version="1.0" encoding="UTF-8" standalone="no"?>
<!DOCTYPE svg PUBLIC "-//W3C//DTD SVG 1.1//EN"
 "http://www.w3.org/Graphics/SVG/1.1/DTD/svg11.dtd">
<!-- Generated by graphviz version 2.40.1 (20161225.0304)
 -->
<!-- Title: UmlClassDiagram Pages: 1 -->
<svg width="2901pt" height="938pt"
 viewBox="0.00 0.00 2901.29 938.40" xmlns="http://www.w3.org/2000/svg" xmlns:xlink="http://www.w3.org/1999/xlink">
<g id="graph0" class="graph" transform="scale(1 1) rotate(0) translate(4 934.4)">
<title>UmlClassDiagram</title>
<polygon fill="#ffffff" stroke="transparent" points="-4,4 -4,-934.4 2897.2932,-934.4 2897.2932,4 -4,4"/>
<!-- 0 -->
<g id="node1" class="node">
<title>0</title>
<polygon fill="#f2f2f2" stroke="#000000" points="832.4101,-.5 832.4101,-175.7 1038.4909,-175.7 1038.4909,-.5 832.4101,-.5"/>
<text text-anchor="middle" x="935.4505" y="-159.1" font-family="Times,serif" font-size="14.00" fill="#000000">Migrations</text>
<polyline fill="none" stroke="#000000" points="832.4101,-150.9 1038.4909,-150.9 "/>
<text text-anchor="start" x="840.4101" y="-134.3" font-family="Times,serif" font-size="14.00" fill="#000000">Public:</text>
<text text-anchor="start" x="840.4101" y="-117.5" font-family="Times,serif" font-size="14.00" fill="#000000"> &#160;&#160;owner: address</text>
<text text-anchor="start" x="840.4101" y="-100.7" font-family="Times,serif" font-size="14.00" fill="#000000"> &#160;&#160;last_completed_migration: uint</text>
<polyline fill="none" stroke="#000000" points="832.4101,-92.5 1038.4909,-92.5 "/>
<text text-anchor="start" x="840.4101" y="-75.9" font-family="Times,serif" font-size="14.00" fill="#000000">Public:</text>
<text text-anchor="start" x="840.4101" y="-59.1" font-family="Times,serif" font-size="14.00" fill="#000000"> &#160;&#160;&#160;&lt;&lt;modifier&gt;&gt; restricted()</text>
<text text-anchor="start" x="840.4101" y="-42.3" font-family="Times,serif" font-size="14.00" fill="#000000"> &#160;&#160;&#160;constructor()</text>
<text text-anchor="start" x="840.4101" y="-25.5" font-family="Times,serif" font-size="14.00" fill="#000000"> &#160;&#160;&#160;setCompleted(completed: uint)</text>
<text text-anchor="start" x="840.4101" y="-8.7" font-family="Times,serif" font-size="14.00" fill="#000000"> &#160;&#160;&#160;upgrade(new_address: address)</text>
</g>
<!-- 0&#45;&gt;0 -->
<g id="edge1" class="edge">
<title>0&#45;&gt;0</title>
<path fill="none" stroke="#000000" stroke-dasharray="5,2" d="M1038.7566,-47.3974C1049.5649,-55.343 1056.4909,-68.9105 1056.4909,-88.1 1056.4909,-102.4921 1052.595,-113.7219 1046.0873,-121.7893"/>
<polygon fill="#000000" stroke="#000000" points="1043.5628,-119.3607 1038.7566,-128.8026 1048.4019,-124.4187 1043.5628,-119.3607"/>
</g>
<!-- 1 -->
<g id="node2" class="node">
<title>1</title>
<polygon fill="#f2f2f2" stroke="#000000" points="1015.3154,-534.1 1015.3154,-692.5 1269.5856,-692.5 1269.5856,-534.1 1015.3154,-534.1"/>
<text text-anchor="middle" x="1142.4505" y="-675.9" font-family="Times,serif" font-size="14.00" fill="#000000">Ownable</text>
<polyline fill="none" stroke="#000000" points="1015.3154,-667.7 1269.5856,-667.7 "/>
<text text-anchor="start" x="1023.3154" y="-651.1" font-family="Times,serif" font-size="14.00" fill="#000000">Public:</text>
<text text-anchor="start" x="1023.3154" y="-634.3" font-family="Times,serif" font-size="14.00" fill="#000000"> &#160;&#160;owner: address</text>
<polyline fill="none" stroke="#000000" points="1015.3154,-626.1 1269.5856,-626.1 "/>
<text text-anchor="start" x="1023.3154" y="-609.5" font-family="Times,serif" font-size="14.00" fill="#000000">External:</text>
<text text-anchor="start" x="1023.3154" y="-592.7" font-family="Times,serif" font-size="14.00" fill="#000000"> &#160;&#160;&#160;transferOwnership(newOwner: address)</text>
<text text-anchor="start" x="1023.3154" y="-575.9" font-family="Times,serif" font-size="14.00" fill="#000000">Public:</text>
<text text-anchor="start" x="1023.3154" y="-559.1" font-family="Times,serif" font-size="14.00" fill="#000000"> &#160;&#160;&#160;&lt;&lt;modifier&gt;&gt; onlyOwner()</text>
<text text-anchor="start" x="1023.3154" y="-542.3" font-family="Times,serif" font-size="14.00" fill="#000000"> &#160;&#160;&#160;constructor()</text>
</g>
<!-- 2 -->
<g id="node3" class="node">
<title>2</title>
<polygon fill="#f2f2f2" stroke="#000000" points="1272.4358,-25.7 1272.4358,-150.5 1470.4652,-150.5 1470.4652,-25.7 1272.4358,-25.7"/>
<text text-anchor="middle" x="1371.4505" y="-133.9" font-family="Times,serif" font-size="14.00" fill="#000000">ReentrancyGuard</text>
<polyline fill="none" stroke="#000000" points="1272.4358,-125.7 1470.4652,-125.7 "/>
<text text-anchor="start" x="1280.4358" y="-109.1" font-family="Times,serif" font-size="14.00" fill="#000000">Private:</text>
<text text-anchor="start" x="1280.4358" y="-92.3" font-family="Times,serif" font-size="14.00" fill="#000000"> &#160;&#160;_guardCounter: uint256</text>
<polyline fill="none" stroke="#000000" points="1272.4358,-84.1 1470.4652,-84.1 "/>
<text text-anchor="start" x="1280.4358" y="-67.5" font-family="Times,serif" font-size="14.00" fill="#000000">Public:</text>
<text text-anchor="start" x="1280.4358" y="-50.7" font-family="Times,serif" font-size="14.00" fill="#000000"> &#160;&#160;&#160;&lt;&lt;modifier&gt;&gt; nonReentrant()</text>
<text text-anchor="start" x="1280.4358" y="-33.9" font-family="Times,serif" font-size="14.00" fill="#000000"> &#160;&#160;&#160;constructor()</text>
</g>
<!-- 3 -->
<g id="node4" class="node">
<title>3</title>
<polygon fill="#f2f2f2" stroke="#000000" points="1287.9796,-525.7 1287.9796,-700.9 1522.9214,-700.9 1522.9214,-525.7 1287.9796,-525.7"/>
<text text-anchor="middle" x="1405.4505" y="-684.3" font-family="Times,serif" font-size="14.00" fill="#000000">&lt;&lt;Library&gt;&gt;</text>
<text text-anchor="middle" x="1405.4505" y="-667.5" font-family="Times,serif" font-size="14.00" fill="#000000">SafeMath</text>
<polyline fill="none" stroke="#000000" points="1287.9796,-659.3 1522.9214,-659.3 "/>
<text text-anchor="middle" x="1405.4505" y="-642.7" font-family="Times,serif" font-size="14.00" fill="#000000"> </text>
<polyline fill="none" stroke="#000000" points="1287.9796,-634.5 1522.9214,-634.5 "/>
<text text-anchor="start" x="1295.9796" y="-617.9" font-family="Times,serif" font-size="14.00" fill="#000000">Internal:</text>
<text text-anchor="start" x="1295.9796" y="-601.1" font-family="Times,serif" font-size="14.00" fill="#000000"> &#160;&#160;&#160;add(a: uint256, b: uint256): uint256</text>
<text text-anchor="start" x="1295.9796" y="-584.3" font-family="Times,serif" font-size="14.00" fill="#000000"> &#160;&#160;&#160;sub(a: uint256, b: uint256): uint256</text>
<text text-anchor="start" x="1295.9796" y="-567.5" font-family="Times,serif" font-size="14.00" fill="#000000"> &#160;&#160;&#160;mul(a: uint256, b: uint256): uint256</text>
<text text-anchor="start" x="1295.9796" y="-550.7" font-family="Times,serif" font-size="14.00" fill="#000000"> &#160;&#160;&#160;div(a: uint256, b: uint256): uint256</text>
<text text-anchor="start" x="1295.9796" y="-533.9" font-family="Times,serif" font-size="14.00" fill="#000000"> &#160;&#160;&#160;mod(a: uint256, b: uint256): uint256</text>
</g>
<!-- 4 -->
<g id="node5" class="node">
<title>4</title>
<polygon fill="#f2f2f2" stroke="#000000" points="2052.2919,-254.7 2052.2919,-446.7 2570.6091,-446.7 2570.6091,-254.7 2052.2919,-254.7"/>
<text text-anchor="middle" x="2311.4505" y="-430.1" font-family="Times,serif" font-size="14.00" fill="#000000">OwnedUpgradeabilityProxy</text>
<polyline fill="none" stroke="#000000" points="2052.2919,-421.9 2570.6091,-421.9 "/>
<text text-anchor="middle" x="2311.4505" y="-405.3" font-family="Times,serif" font-size="14.00" fill="#000000"> </text>
<polyline fill="none" stroke="#000000" points="2052.2919,-397.1 2570.6091,-397.1 "/>
<text text-anchor="start" x="2060.2919" y="-380.5" font-family="Times,serif" font-size="14.00" fill="#000000">Public:</text>
<text text-anchor="start" x="2060.2919" y="-363.7" font-family="Times,serif" font-size="14.00" fill="#000000"> &#160;&#160;&#160;&lt;&lt;payable&gt;&gt; upgradeToAndCall(version: string, implementation: address, data: bytes)</text>
<text text-anchor="start" x="2060.2919" y="-346.9" font-family="Times,serif" font-size="14.00" fill="#000000"> &#160;&#160;&#160;&lt;&lt;event&gt;&gt; ProxyOwnershipTransferred(previousOwner: address, newOwner: address)</text>
<text text-anchor="start" x="2060.2919" y="-330.1" font-family="Times,serif" font-size="14.00" fill="#000000"> &#160;&#160;&#160;&lt;&lt;modifier&gt;&gt; onlyProxyOwner()</text>
<text text-anchor="start" x="2060.2919" y="-313.3" font-family="Times,serif" font-size="14.00" fill="#000000"> &#160;&#160;&#160;constructor()</text>
<text text-anchor="start" x="2060.2919" y="-296.5" font-family="Times,serif" font-size="14.00" fill="#000000"> &#160;&#160;&#160;proxyOwner(): address</text>
<text text-anchor="start" x="2060.2919" y="-279.7" font-family="Times,serif" font-size="14.00" fill="#000000"> &#160;&#160;&#160;transferProxyOwnership(newOwner: address)</text>
<text text-anchor="start" x="2060.2919" y="-262.9" font-family="Times,serif" font-size="14.00" fill="#000000"> &#160;&#160;&#160;upgradeTo(version: string, implementation: address)</text>
</g>
<!-- 6 -->
<g id="node7" class="node">
<title>6</title>
<polygon fill="#f2f2f2" stroke="#000000" points="2521.6078,-542.5 2521.6078,-684.1 2893.2932,-684.1 2893.2932,-542.5 2521.6078,-542.5"/>
<text text-anchor="middle" x="2707.4505" y="-667.5" font-family="Times,serif" font-size="14.00" fill="#000000">UpgradeabilityOwnerStorage</text>
<polyline fill="none" stroke="#000000" points="2521.6078,-659.3 2893.2932,-659.3 "/>
<text text-anchor="start" x="2529.6078" y="-642.7" font-family="Times,serif" font-size="14.00" fill="#000000">Private:</text>
<text text-anchor="start" x="2529.6078" y="-625.9" font-family="Times,serif" font-size="14.00" fill="#000000"> &#160;&#160;_upgradeabilityOwner: address</text>
<polyline fill="none" stroke="#000000" points="2521.6078,-617.7 2893.2932,-617.7 "/>
<text text-anchor="start" x="2529.6078" y="-601.1" font-family="Times,serif" font-size="14.00" fill="#000000">Internal:</text>
<text text-anchor="start" x="2529.6078" y="-584.3" font-family="Times,serif" font-size="14.00" fill="#000000"> &#160;&#160;&#160;setUpgradeabilityOwner(newUpgradeabilityOwner: address)</text>
<text text-anchor="start" x="2529.6078" y="-567.5" font-family="Times,serif" font-size="14.00" fill="#000000">Public:</text>
<text text-anchor="start" x="2529.6078" y="-550.7" font-family="Times,serif" font-size="14.00" fill="#000000"> &#160;&#160;&#160;upgradeabilityOwner(): address</text>
</g>
<!-- 4&#45;&gt;6 -->
<g id="edge2" class="edge">
<title>4&#45;&gt;6</title>
<path fill="none" stroke="#000000" d="M2456.377,-446.8053C2495.321,-472.6303 2537.2225,-500.4165 2575.4246,-525.7495"/>
<polygon fill="none" stroke="#000000" points="2569.7551,-534.5888 2600.5603,-542.4178 2581.361,-517.0872 2569.7551,-534.5888"/>
</g>
<!-- 7 -->
<g id="node8" class="node">
<title>7</title>
<polygon fill="#f2f2f2" stroke="#000000" points="2119.1251,-542.5 2119.1251,-684.1 2503.7759,-684.1 2503.7759,-542.5 2119.1251,-542.5"/>
<text text-anchor="middle" x="2311.4505" y="-667.5" font-family="Times,serif" font-size="14.00" fill="#000000">UpgradeabilityProxy</text>
<polyline fill="none" stroke="#000000" points="2119.1251,-659.3 2503.7759,-659.3 "/>
<text text-anchor="middle" x="2311.4505" y="-642.7" font-family="Times,serif" font-size="14.00" fill="#000000"> </text>
<polyline fill="none" stroke="#000000" points="2119.1251,-634.5 2503.7759,-634.5 "/>
<text text-anchor="start" x="2127.1251" y="-617.9" font-family="Times,serif" font-size="14.00" fill="#000000">Internal:</text>
<text text-anchor="start" x="2127.1251" y="-601.1" font-family="Times,serif" font-size="14.00" fill="#000000"> &#160;&#160;&#160;_upgradeTo(version: string, implementation: address)</text>
<text text-anchor="start" x="2127.1251" y="-584.3" font-family="Times,serif" font-size="14.00" fill="#000000">Public:</text>
<text text-anchor="start" x="2127.1251" y="-567.5" font-family="Times,serif" font-size="14.00" fill="#000000"> &#160;&#160;&#160;&lt;&lt;event&gt;&gt; Upgraded(version: string, implementation: address)</text>
<text text-anchor="start" x="2127.1251" y="-550.7" font-family="Times,serif" font-size="14.00" fill="#000000"> &#160;&#160;&#160;getImplementation(): address</text>
</g>
<!-- 4&#45;&gt;7 -->
<g id="edge3" class="edge">
<title>4&#45;&gt;7</title>
<path fill="none" stroke="#000000" d="M2311.4505,-446.9914C2311.4505,-468.1363 2311.4505,-490.5879 2311.4505,-511.9258"/>
<polygon fill="none" stroke="#000000" points="2300.9506,-512.1095 2311.4505,-542.1095 2321.9506,-512.1096 2300.9506,-512.1095"/>
</g>
<!-- 5 -->
<g id="node6" class="node">
<title>5</title>
<polygon fill="#f2f2f2" stroke="#000000" points="2183.8618,-771.5 2183.8618,-896.3 2439.0392,-896.3 2439.0392,-771.5 2183.8618,-771.5"/>
<text text-anchor="middle" x="2311.4505" y="-879.7" font-family="Times,serif" font-size="14.00" fill="#000000">&lt;&lt;Abstract&gt;&gt;</text>
<text text-anchor="middle" x="2311.4505" y="-862.9" font-family="Times,serif" font-size="14.00" fill="#000000">Proxy</text>
<polyline fill="none" stroke="#000000" points="2183.8618,-854.7 2439.0392,-854.7 "/>
<text text-anchor="middle" x="2311.4505" y="-838.1" font-family="Times,serif" font-size="14.00" fill="#000000"> </text>
<polyline fill="none" stroke="#000000" points="2183.8618,-829.9 2439.0392,-829.9 "/>
<text text-anchor="start" x="2191.8618" y="-813.3" font-family="Times,serif" font-size="14.00" fill="#000000">Public:</text>
<text text-anchor="start" x="2191.8618" y="-796.5" font-family="Times,serif" font-size="14.00" fill="#000000"> &#160;&#160;&#160;&lt;&lt;abstract&gt;&gt; implementation(): address</text>
<text text-anchor="start" x="2191.8618" y="-779.7" font-family="Times,serif" font-size="14.00" fill="#000000"> &#160;&#160;&#160;&lt;&lt;fallback&gt;&gt; ()</text>
</g>
<!-- 7&#45;&gt;5 -->
<g id="edge4" class="edge">
<title>7&#45;&gt;5</title>
<path fill="none" stroke="#000000" d="M2311.4505,-684.3135C2311.4505,-702.3357 2311.4505,-721.9676 2311.4505,-740.9019"/>
<polygon fill="none" stroke="#000000" points="2300.9506,-741.2059 2311.4505,-771.2059 2321.9506,-741.2059 2300.9506,-741.2059"/>
</g>
<!-- 8 -->
<g id="node9" class="node">
<title>8</title>
<polygon fill="#f2f2f2" stroke="#000000" points="1944.1661,-763.1 1944.1661,-904.7 2120.7349,-904.7 2120.7349,-763.1 1944.1661,-763.1"/>
<text text-anchor="middle" x="2032.4505" y="-888.1" font-family="Times,serif" font-size="14.00" fill="#000000">UpgradeabilityStorage</text>
<polyline fill="none" stroke="#000000" points="1944.1661,-879.9 2120.7349,-879.9 "/>
<text text-anchor="start" x="1952.1661" y="-863.3" font-family="Times,serif" font-size="14.00" fill="#000000">Internal:</text>
<text text-anchor="start" x="1952.1661" y="-846.5" font-family="Times,serif" font-size="14.00" fill="#000000"> &#160;&#160;_version: string</text>
<text text-anchor="start" x="1952.1661" y="-829.7" font-family="Times,serif" font-size="14.00" fill="#000000"> &#160;&#160;_implementation: address</text>
<polyline fill="none" stroke="#000000" points="1944.1661,-821.5 2120.7349,-821.5 "/>
<text text-anchor="start" x="1952.1661" y="-804.9" font-family="Times,serif" font-size="14.00" fill="#000000">Public:</text>
<text text-anchor="start" x="1952.1661" y="-788.1" font-family="Times,serif" font-size="14.00" fill="#000000"> &#160;&#160;&#160;version(): string</text>
<text text-anchor="start" x="1952.1661" y="-771.3" font-family="Times,serif" font-size="14.00" fill="#000000"> &#160;&#160;&#160;implementation(): address</text>
</g>
<!-- 7&#45;&gt;8 -->
<g id="edge5" class="edge">
<title>7&#45;&gt;8</title>
<path fill="none" stroke="#000000" d="M2221.6374,-684.3135C2197.2523,-703.5943 2170.5373,-724.7174 2145.0653,-744.8576"/>
<polygon fill="none" stroke="#000000" points="2138.1614,-736.9307 2121.1411,-763.774 2151.1862,-753.4036 2138.1614,-736.9307"/>
</g>
<!-- 9 -->
<g id="node10" class="node">
<title>9</title>
<polygon fill="#f2f2f2" stroke="#000000" points="1540.8056,-550.9 1540.8056,-675.7 1858.0954,-675.7 1858.0954,-550.9 1540.8056,-550.9"/>
<text text-anchor="middle" x="1699.4505" y="-659.1" font-family="Times,serif" font-size="14.00" fill="#000000">&lt;&lt;Interface&gt;&gt;</text>
<text text-anchor="middle" x="1699.4505" y="-642.3" font-family="Times,serif" font-size="14.00" fill="#000000">ERC20</text>
<polyline fill="none" stroke="#000000" points="1540.8056,-634.1 1858.0954,-634.1 "/>
<text text-anchor="middle" x="1699.4505" y="-617.5" font-family="Times,serif" font-size="14.00" fill="#000000"> </text>
<polyline fill="none" stroke="#000000" points="1540.8056,-609.3 1858.0954,-609.3 "/>
<text text-anchor="start" x="1548.8056" y="-592.7" font-family="Times,serif" font-size="14.00" fill="#000000">External:</text>
<text text-anchor="start" x="1548.8056" y="-575.9" font-family="Times,serif" font-size="14.00" fill="#000000"> &#160;&#160;&#160;&#160;balanceOf(_owner: address): (balance: uint)</text>
<text text-anchor="start" x="1548.8056" y="-559.1" font-family="Times,serif" font-size="14.00" fill="#000000"> &#160;&#160;&#160;&#160;transfer(_to: address, _value: uint): (success: bool)</text>
</g>
<!-- 10 -->
<g id="node11" class="node">
<title>10</title>
<polygon fill="#f2f2f2" stroke="#000000" points="45.5851,-559.3 45.5851,-667.3 279.3159,-667.3 279.3159,-559.3 45.5851,-559.3"/>
<text text-anchor="middle" x="162.4505" y="-650.7" font-family="Times,serif" font-size="14.00" fill="#000000">&lt;&lt;Interface&gt;&gt;</text>
<text text-anchor="middle" x="162.4505" y="-633.9" font-family="Times,serif" font-size="14.00" fill="#000000">SynthDepotInterface</text>
<polyline fill="none" stroke="#000000" points="45.5851,-625.7 279.3159,-625.7 "/>
<text text-anchor="middle" x="162.4505" y="-609.1" font-family="Times,serif" font-size="14.00" fill="#000000"> </text>
<polyline fill="none" stroke="#000000" points="45.5851,-600.9 279.3159,-600.9 "/>
<text text-anchor="start" x="53.5851" y="-584.3" font-family="Times,serif" font-size="14.00" fill="#000000">External:</text>
<text text-anchor="start" x="53.5851" y="-567.5" font-family="Times,serif" font-size="14.00" fill="#000000"> &#160;&#160;&#160;&#160;exchangeEtherForSynths(): uint256</text>
</g>
<!-- 11 -->
<g id="node12" class="node">
<title>11</title>
<polygon fill="#f2f2f2" stroke="#000000" points="297.2849,-559.3 297.2849,-667.3 997.6161,-667.3 997.6161,-559.3 297.2849,-559.3"/>
<text text-anchor="middle" x="647.4505" y="-650.7" font-family="Times,serif" font-size="14.00" fill="#000000">&lt;&lt;Abstract&gt;&gt;</text>
<text text-anchor="middle" x="647.4505" y="-633.9" font-family="Times,serif" font-size="14.00" fill="#000000">SynthProxyInterface</text>
<polyline fill="none" stroke="#000000" points="297.2849,-625.7 997.6161,-625.7 "/>
<text text-anchor="middle" x="647.4505" y="-609.1" font-family="Times,serif" font-size="14.00" fill="#000000"> </text>
<polyline fill="none" stroke="#000000" points="297.2849,-600.9 997.6161,-600.9 "/>
<text text-anchor="start" x="305.2849" y="-584.3" font-family="Times,serif" font-size="14.00" fill="#000000">External:</text>
<text text-anchor="start" x="305.2849" y="-567.5" font-family="Times,serif" font-size="14.00" fill="#000000"> &#160;&#160;&#160;&lt;&lt;abstract&gt;&gt; exchange(sourceCurrencyKey: bytes32, sourceAmount: uint256, destinationCurrencyKey: bytes32): bool</text>
</g>
<!-- 12 -->
<g id="node13" class="node">
<title>12</title>
<polygon fill="#f2f2f2" stroke="#000000" points="1012.1884,-212.7 1012.1884,-488.7 1534.7126,-488.7 1534.7126,-212.7 1012.1884,-212.7"/>
<text text-anchor="middle" x="1273.4505" y="-472.1" font-family="Times,serif" font-size="14.00" fill="#000000">Invest2_sETH</text>
<polyline fill="none" stroke="#000000" points="1012.1884,-463.9 1534.7126,-463.9 "/>
<text text-anchor="start" x="1020.1884" y="-447.3" font-family="Times,serif" font-size="14.00" fill="#000000">Public:</text>
<text text-anchor="start" x="1020.1884" y="-430.5" font-family="Times,serif" font-size="14.00" fill="#000000"> &#160;&#160;SynthDepotInterfaceContract: SynthDepotInterface</text>
<text text-anchor="start" x="1020.1884" y="-413.7" font-family="Times,serif" font-size="14.00" fill="#000000"> &#160;&#160;SynthProxyInterfaceContract: SynthProxyInterface</text>
<text text-anchor="start" x="1020.1884" y="-396.9" font-family="Times,serif" font-size="14.00" fill="#000000"> &#160;&#160;sETHContract: ERC20</text>
<polyline fill="none" stroke="#000000" points="1012.1884,-388.7 1534.7126,-388.7 "/>
<text text-anchor="start" x="1020.1884" y="-372.1" font-family="Times,serif" font-size="14.00" fill="#000000">Public:</text>
<text text-anchor="start" x="1020.1884" y="-355.3" font-family="Times,serif" font-size="14.00" fill="#000000"> &#160;&#160;&#160;&lt;&lt;fallback&gt;&gt; ()</text>
<text text-anchor="start" x="1020.1884" y="-338.5" font-family="Times,serif" font-size="14.00" fill="#000000"> &#160;&#160;&#160;&lt;&lt;payable&gt;&gt; LetsInvestin_sETH(_investor: address): uint</text>
<text text-anchor="start" x="1020.1884" y="-321.7" font-family="Times,serif" font-size="14.00" fill="#000000"> &#160;&#160;&#160;&lt;&lt;payable&gt;&gt; depositETH(): uint</text>
<text text-anchor="start" x="1020.1884" y="-304.9" font-family="Times,serif" font-size="14.00" fill="#000000"> &#160;&#160;&#160;&lt;&lt;event&gt;&gt; sUSDReceived(uint)</text>
<text text-anchor="start" x="1020.1884" y="-288.1" font-family="Times,serif" font-size="14.00" fill="#000000"> &#160;&#160;&#160;&lt;&lt;event&gt;&gt; sETHReceived(uint)</text>
<text text-anchor="start" x="1020.1884" y="-271.3" font-family="Times,serif" font-size="14.00" fill="#000000"> &#160;&#160;&#160;set_SynthDepotInterfaceContract(_SynthDepotInterfaceContract: SynthDepotInterface)</text>
<text text-anchor="start" x="1020.1884" y="-254.5" font-family="Times,serif" font-size="14.00" fill="#000000"> &#160;&#160;&#160;set_SynthProxyInterfaceContract(_SynthProxyInterfaceContract: SynthProxyInterface)</text>
<text text-anchor="start" x="1020.1884" y="-237.7" font-family="Times,serif" font-size="14.00" fill="#000000"> &#160;&#160;&#160;set_sETHContract(_sETHContract: ERC20)</text>
<text text-anchor="start" x="1020.1884" y="-220.9" font-family="Times,serif" font-size="14.00" fill="#000000"> &#160;&#160;&#160;withdraw()</text>
</g>
<!-- 12&#45;&gt;1 -->
<g id="edge6" class="edge">
<title>12&#45;&gt;1</title>
<path fill="none" stroke="#000000" d="M1204.4978,-488.9212C1201.4881,-494.9545 1198.488,-500.9682 1195.5233,-506.9113"/>
<polygon fill="none" stroke="#000000" points="1185.9987,-502.4824 1182.0026,-534.0146 1204.7903,-511.8567 1185.9987,-502.4824"/>
</g>
<!-- 12&#45;&gt;3 -->
<g id="edge8" class="edge">
<title>12&#45;&gt;3</title>
<path fill="none" stroke="#000000" stroke-dasharray="5,2" d="M1342.9295,-488.9212C1347.6344,-498.281 1352.3156,-507.5938 1356.8772,-516.6686"/>
<polygon fill="#000000" stroke="#000000" points="1353.7769,-518.2942 1361.3953,-525.657 1360.0313,-515.1503 1353.7769,-518.2942"/>
</g>
<!-- 12&#45;&gt;9 -->
<g id="edge11" class="edge">
<title>12&#45;&gt;9</title>
<path fill="none" stroke="#000000" d="M1497.3666,-488.7291C1529.3725,-508.4585 1561.0488,-527.9848 1589.4948,-545.5198"/>
<polygon fill="#000000" stroke="#000000" points="1587.8667,-548.6277 1598.2159,-550.8958 1591.5399,-542.6689 1587.8667,-548.6277"/>
</g>
<!-- 12&#45;&gt;10 -->
<g id="edge9" class="edge">
<title>12&#45;&gt;10</title>
<path fill="none" stroke="#000000" d="M1012.0683,-366.0854C808.4147,-385.301 521.9989,-428.4429 288.4505,-525.2 270.7063,-532.5513 252.9824,-542.7304 236.6692,-553.567"/>
<polygon fill="#000000" stroke="#000000" points="234.5709,-550.7613 228.2744,-559.2822 238.5103,-556.5477 234.5709,-550.7613"/>
</g>
<!-- 12&#45;&gt;11 -->
<g id="edge10" class="edge">
<title>12&#45;&gt;11</title>
<path fill="none" stroke="#000000" d="M1012.0502,-460.3545C934.4015,-492.9273 852.3959,-527.3277 785.8641,-555.2371"/>
<polygon fill="#000000" stroke="#000000" points="784.4485,-552.0353 776.5809,-559.1312 787.1563,-558.4904 784.4485,-552.0353"/>
</g>
<!-- 15 -->
<g id="node16" class="node">
<title>15</title>
<polygon fill="#f2f2f2" stroke="#000000" points="1875.8775,-576.1 1875.8775,-650.5 2101.0235,-650.5 2101.0235,-576.1 1875.8775,-576.1"/>
<text text-anchor="middle" x="1988.4505" y="-633.9" font-family="Times,serif" font-size="14.00" fill="#000000">Upgradeable_Invest2_sETH_Storage</text>
<polyline fill="none" stroke="#000000" points="1875.8775,-625.7 2101.0235,-625.7 "/>
<text text-anchor="middle" x="1988.4505" y="-609.1" font-family="Times,serif" font-size="14.00" fill="#000000"> </text>
<polyline fill="none" stroke="#000000" points="1875.8775,-600.9 2101.0235,-600.9 "/>
<text text-anchor="middle" x="1988.4505" y="-584.3" font-family="Times,serif" font-size="14.00" fill="#000000"> </text>
</g>
<!-- 12&#45;&gt;15 -->
<g id="edge7" class="edge">
<title>12&#45;&gt;15</title>
<path fill="none" stroke="#000000" d="M1535.0719,-406.8176C1641.3173,-434.8531 1763.3087,-473.9225 1867.4505,-525.2 1885.6106,-534.1417 1903.9225,-545.7991 1920.6124,-557.6915"/>
<polygon fill="none" stroke="#000000" points="1914.5643,-566.2808 1944.8563,-575.9063 1927.1785,-549.4914 1914.5643,-566.2808"/>
</g>
<!-- 13 -->
<g id="node14" class="node">
<title>13</title>
<polygon fill="#f2f2f2" stroke="#000000" points="781.3375,-737.9 781.3375,-929.9 1065.5635,-929.9 1065.5635,-737.9 781.3375,-737.9"/>
<text text-anchor="middle" x="923.4505" y="-913.3" font-family="Times,serif" font-size="14.00" fill="#000000">Invest2_sETH_Storage</text>
<polyline fill="none" stroke="#000000" points="781.3375,-905.1 1065.5635,-905.1 "/>
<text text-anchor="start" x="789.3375" y="-888.5" font-family="Times,serif" font-size="14.00" fill="#000000">Public:</text>
<text text-anchor="start" x="789.3375" y="-871.7" font-family="Times,serif" font-size="14.00" fill="#000000"> &#160;&#160;balance: uint</text>
<text text-anchor="start" x="789.3375" y="-854.9" font-family="Times,serif" font-size="14.00" fill="#000000"> &#160;&#160;USDbytes32: bytes32</text>
<text text-anchor="start" x="789.3375" y="-838.1" font-family="Times,serif" font-size="14.00" fill="#000000"> &#160;&#160;sETHbytes32: bytes32</text>
<text text-anchor="start" x="789.3375" y="-821.3" font-family="Times,serif" font-size="14.00" fill="#000000"> &#160;&#160;synthDepotInterfaceContractAddress: address</text>
<text text-anchor="start" x="789.3375" y="-804.5" font-family="Times,serif" font-size="14.00" fill="#000000"> &#160;&#160;synthProxyInterfaceContractAddress: address</text>
<text text-anchor="start" x="789.3375" y="-787.7" font-family="Times,serif" font-size="14.00" fill="#000000"> &#160;&#160;sETHContractAddress: address</text>
<text text-anchor="start" x="789.3375" y="-770.9" font-family="Times,serif" font-size="14.00" fill="#000000"> &#160;&#160;resultArray: uint256[]</text>
<polyline fill="none" stroke="#000000" points="781.3375,-762.7 1065.5635,-762.7 "/>
<text text-anchor="middle" x="923.4505" y="-746.1" font-family="Times,serif" font-size="14.00" fill="#000000"> </text>
</g>
<!-- 14 -->
<g id="node15" class="node">
<title>14</title>
<polygon fill="#f2f2f2" stroke="#000000" points="1074.414,-50.9 1074.414,-125.3 1254.487,-125.3 1254.487,-50.9 1074.414,-50.9"/>
<text text-anchor="middle" x="1164.4505" y="-108.7" font-family="Times,serif" font-size="14.00" fill="#000000">Invest2_sETH_StorageProxy</text>
<polyline fill="none" stroke="#000000" points="1074.414,-100.5 1254.487,-100.5 "/>
<text text-anchor="middle" x="1164.4505" y="-83.9" font-family="Times,serif" font-size="14.00" fill="#000000"> </text>
<polyline fill="none" stroke="#000000" points="1074.414,-75.7 1254.487,-75.7 "/>
<text text-anchor="middle" x="1164.4505" y="-59.1" font-family="Times,serif" font-size="14.00" fill="#000000"> </text>
</g>
<!-- 14&#45;&gt;4 -->
<g id="edge12" class="edge">
<title>14&#45;&gt;4</title>
<path fill="none" stroke="#000000" d="M1196.4333,-125.6787C1214.2263,-144.0075 1237.9077,-164.5616 1263.4505,-176.2 1377.6257,-228.2234 1419.4502,-193.0601 1543.4505,-212.2 1702.2187,-236.7065 1878.6731,-268.2242 2022.3688,-295.0008"/>
<polygon fill="none" stroke="#000000" points="2020.6315,-305.3578 2052.0504,-300.5509 2024.4915,-284.7156 2020.6315,-305.3578"/>
</g>
<!-- 14&#45;&gt;13 -->
<g id="edge13" class="edge">
<title>14&#45;&gt;13</title>
<path fill="none" stroke="#000000" d="M1129.6167,-125.3962C1111.7816,-142.7584 1088.9146,-162.5433 1065.4505,-176.2 648.0756,-419.1226 317.7926,-132.6954 36.4505,-525.2 -9.1723,-588.849 -14.6699,-642.076 36.4505,-701.4 82.4071,-754.7316 506.1508,-798.8409 750.9404,-820.1397"/>
<polygon fill="none" stroke="#000000" points="750.1719,-830.6123 780.9597,-822.7156 751.9672,-809.6892 750.1719,-830.6123"/>
</g>
<!-- 15&#45;&gt;8 -->
<g id="edge14" class="edge">
<title>15&#45;&gt;8</title>
<path fill="none" stroke="#000000" d="M1995.9145,-650.7218C2000.4456,-673.4391 2006.4657,-703.6219 2012.3096,-732.9211"/>
<polygon fill="none" stroke="#000000" points="2002.1007,-735.4176 2018.266,-762.7843 2022.695,-731.3099 2002.1007,-735.4176"/>
</g>
<!-- 15&#45;&gt;13 -->
<g id="edge15" class="edge">
<title>15&#45;&gt;13</title>
<path fill="none" stroke="#000000" d="M1947.856,-650.6734C1925.6972,-668.9461 1896.8391,-689.5119 1867.4505,-701.4 1731.1077,-756.5527 1329.038,-798.992 1095.9506,-819.7854"/>
<polygon fill="none" stroke="#000000" points="1094.9276,-809.3348 1065.9636,-822.4243 1096.7686,-830.2539 1094.9276,-809.3348"/>
</g>
</g>
</svg>
